<svg width="157" height="112" viewBox="0 0 157 112" xmlns="http://www.w3.org/2000/svg"><title>noun_60441_cc</title><g fill="#50E3C2" fill-rule="evenodd"><path d="M153.51 0H3.49A3.496 3.496 0 0 0 0 3.5v82.25c0 1.932 1.563 3.5 3.49 3.5h51.46v19.25H41.867c-.965 0-1.745.782-1.745 1.75s.78 1.75 1.745 1.75h73.266c.965 0 1.745-.782 1.745-1.75s-.78-1.75-1.745-1.75H102.05V89.25h51.46a3.496 3.496 0 0 0 3.49-3.5V3.5c0-1.932-1.563-3.5-3.49-3.5zM3.49 3.5h150.02V7H3.49V3.5zm0 7h150.02v64.75H3.49V10.5zm54.95 98V89.25h40.12v19.25H58.44zm95.07-22.75H3.49v-7h150.02v7z"/><path d="M60.313 31.513a1.74 1.74 0 0 0-2.466 0L45.512 43.887a1.752 1.752 0 0 0 0 2.475l12.335 12.374a1.737 1.737 0 0 0 2.466 0 1.752 1.752 0 0 0 0-2.474l-11.1-11.137 11.1-11.137a1.752 1.752 0 0 0 0-2.475zM98.978 31.513a1.74 1.74 0 0 0-2.466 0 1.752 1.752 0 0 0 0 2.475l11.1 11.137-11.1 11.137a1.752 1.752 0 0 0 1.233 2.987c.446 0 .893-.173 1.233-.514l12.335-12.374a1.752 1.752 0 0 0 0-2.475L98.978 31.513zM67.783 62.128l23.096-30.65c.58-.77.424-1.864-.35-2.446a1.746 1.746 0 0 0-2.446.34l-23.096 30.65c-.58.77-.426 1.864.347 2.446.773.583 1.867.43 2.448-.34z"/></g></svg>