<svg width="132" height="98" viewBox="0 0 132 98" xmlns="http://www.w3.org/2000/svg"><title>noun_117857_cc</title><path d="M127.286 23.333h-33V14c0-7.72-6.345-14-14.143-14H51.857C44.06 0 37.714 6.28 37.714 14v9.333h-33C2.11 23.333 0 25.423 0 28v18.667c0 2.577 2.11 4.666 4.714 4.666v42C4.714 95.91 6.824 98 9.43 98h113.14c2.605 0 4.716-2.09 4.716-4.667v-42c2.603 0 4.714-2.09 4.714-4.666V28c0-2.577-2.11-4.667-4.714-4.667zM42.43 14c0-5.155 4.22-9.333 9.427-9.333h28.286c5.207 0 9.428 4.178 9.428 9.333v9.333h-4.713V14c0-2.577-2.11-4.667-4.714-4.667H51.857c-2.604 0-4.714 2.09-4.714 4.667v9.333H42.43V14zm37.713 0v9.333H51.857V14h28.286zm42.428 79.333H9.43v-42h47.14v7c0 5.147 4.23 9.334 9.43 9.334 5.2 0 9.43-4.187 9.43-9.334v-7h47.14v42zM70.715 56v2.333C70.714 60.91 68.604 63 66 63c-2.603 0-4.714-2.09-4.714-4.667V56h9.428zm-9.428-4.667V42h9.428v9.333h-9.428zm66-4.666H75.43V42c0-2.577-2.112-4.667-4.716-4.667h-9.428c-2.604 0-4.715 2.09-4.715 4.667v4.667H4.715V28h122.572v18.667z" fill="#50E3C2" fill-rule="evenodd"/></svg>