<svg width="180" height="100" viewBox="0 0 180 100" xmlns="http://www.w3.org/2000/svg"><title>noun_111801_cc</title><path d="M134.152 94.082c0-1.633 1.182-2.858 2.758-2.858s2.758 1.225 2.758 2.858c0 1.632-1.182 2.857-2.758 2.857s-2.758-1.226-2.758-2.858zM166.262 20v17.96h-4.137V22.04h-52.597V89.39h37.625v6.734c0 1.225.394 2.04 1.182 2.858h-40.58c-1.38 0-2.56-1.225-2.56-2.858V20c0-1.633 1.18-2.857 2.56-2.857H163.7c1.577 0 2.56 1.224 2.56 2.857zm-32.504 74.082c0 1.836 1.38 3.265 3.152 3.265 1.773 0 3.15-1.43 3.15-3.265 0-1.837-1.377-3.266-3.15-3.266s-3.152 1.43-3.152 3.266zM136.318 20c0-.408-.196-.612-.59-.612-.394 0-.59.204-.59.612 0 .408.196.612.59.612.394 0 .59-.408.59-.612zM89.042 34.898l-6.894 12.45L78.01 40l-8.866 15.714H100.86L89.04 34.898zm49.25 14.694l-4.335 7.55-2.56-4.49-5.32 9.797h19.108L138.29 49.59zm27.577 12.45l-2.954 5.305-1.773-3.06-3.743 6.733h13.396l-4.926-8.98zm-2.363 28.978c-1.576 0-2.758 1.225-2.758 2.858 0 1.632 1.182 2.857 2.758 2.857s2.757-1.225 2.757-2.857c0-1.633-1.377-2.858-2.756-2.858zm15.76-49.796V96.53c0 1.43-1.38 2.654-2.956 2.654h-25.806c-1.576 0-2.955-1.225-2.955-2.653V41.225c0-1.428 1.38-2.653 2.955-2.653h25.806c1.576 0 2.955 1.226 2.955 2.654zm-17.336 1.225c0 .203.197.407.394.407h3.742c.197 0 .394-.204.394-.408 0-.205-.197-.41-.394-.41h-3.742c-.394 0-.394.205-.394.41zm-2.364 0c0 .203.197.407.394.407s.394-.204.394-.408c0-.205-.197-.41-.394-.41s-.394.205-.394.41zm7.09 51.428c0-1.837-1.377-3.266-3.15-3.266s-3.152 1.43-3.152 3.266 1.38 3.265 3.152 3.265c1.773 0 3.15-1.43 3.15-3.265zm11.033-47.756H149.32V88.98h28.367V46.122zm-73.084 51.02v-5.917h-8.077v.612c0 .816-.788 1.632-1.97 1.632h-20.29c-1.182 0-1.97-.613-1.97-1.633v-.613H.788v3.47c0 2.45 2.56 4.49 5.516 4.49h99.284s-.985-.817-.985-2.04zM154.64 5.92v12.04h-5.91V6.123H19.895V84.49h84.707v5.714H13.986V6.122c0-3.06 2.56-5.51 5.516-5.51h129.62c3.153 0 5.517 2.45 5.517 5.306zM84.903 3.265c0-.408-.197-.612-.59-.612-.395 0-.592.204-.592.612 0 .408.197.613.59.613.395 0 .592-.205.592-.613z" fill="#50E3C2" fill-rule="evenodd"/></svg>